<svg width="41" height="55" viewBox="0 0 41 55" fill="none" xmlns="http://www.w3.org/2000/svg">
<path d="M1.19383 54.6795C3.76128 55.4333 7.35955 52.5554 9.50004 51.1106C19.0184 44.6693 28.369 37.2196 37.9785 30.8868C39.5554 29.6419 40.9893 28.2982 40.3517 26.1282C39.8905 24.5464 33.1486 19.1256 31.4522 17.8008C25.7138 13.301 11.6204 3.03502 5.34693 0.550995C-1.90567 -2.32134 0.754234 6.75223 0.600529 11.2577C0.128028 24.997 -0.0383137 38.5096 0.00722862 52.3003C-0.0269281 53.1054 0.448075 54.4568 1.19383 54.6795Z" fill="#00FF99"/>
<path d="M4.39946 49.41C6.51305 50.0341 9.16366 47.6322 10.9258 46.4359C18.7615 41.102 26.747 35.0249 34.6578 29.7809C35.9559 28.7501 36.9626 27.4141 36.4377 25.6172C36.0581 24.3074 30.1213 20.1712 28.7248 19.0742C24.0008 15.3481 13.1237 6.85546 7.95926 4.79853C1.98872 2.42005 3.9327 9.98997 3.80616 13.7208C3.41719 25.0978 3.17537 36.206 3.21286 47.6255C3.18474 48.2922 3.78554 49.2256 4.39946 49.41Z" fill="#80FFBF"/>
</svg>
