<svg width="57" height="55" viewBox="0 0 57 55" fill="none" xmlns="http://www.w3.org/2000/svg">
<path d="M34.1003 53.6708C35.7815 52.5596 40.0593 48.1772 41.7789 46.4944C45.2373 43.1032 53.8709 34.7994 55.9549 30.9457C57.1887 28.6656 56.4254 27.7151 55.3642 25.5634C52.2382 19.2306 39.9943 5.6437 34.1003 1.64231C31.1596 -0.355179 29.7496 -1.13092 28.7843 2.83836C27.1733 9.42172 29.1781 17.5592 28.1936 24.3674C25.4639 22.5562 23.8378 19.6253 21.6963 17.191C17.8351 12.8043 9.27836 3.87673 4.56698 1.04428C2.57886 -0.15036 1.07798 -0.245281 0.432319 2.24034C0.956517 17.7514 -0.763107 34.7129 0.432319 50.0826C0.566565 51.8039 0.333809 54.667 2.79498 54.2688C4.06712 54.0633 12.5729 47.2709 14.0176 45.8964C18.4925 41.6381 22.6077 35.468 27.0123 31.5437C27.1977 31.3767 28.1488 30.8879 28.1936 30.9457C27.2475 33.913 28.1361 36.5499 28.1936 39.3181C28.2575 42.2212 27.6873 52.4383 29.3749 54.2688C30.4617 55.4442 32.9624 54.4222 34.1003 53.6708ZM31.7376 50.0826V4.03442C33.617 4.56109 35.5833 6.81403 37.0536 8.22062C39.2654 10.3401 42.693 13.6828 44.7322 15.995C45.9277 17.3502 53.5219 26.5033 53.5922 27.3575C53.7137 28.8733 44.5648 38.825 42.9602 40.5141C40.2561 43.3659 37.1176 46.4587 34.1003 48.8865C33.4674 49.3939 32.6262 50.1661 31.7376 50.0826ZM3.97631 50.0826V4.03442C12.5425 10.5536 19.7132 19.0857 25.8309 27.9556C20.9597 33.6911 16.0033 39.575 10.4736 44.7003C9.78323 45.3426 4.47494 50.6607 3.97631 50.0826Z" fill="#F16393"/>
<path d="M31.4632 50.1267C32.3573 50.2102 33.1844 49.4378 33.8259 48.9307C36.8774 46.5041 40.5295 42.8041 43.2765 39.9603C44.9027 38.2719 53.4409 28.9167 53.3178 27.4017C53.2466 26.5479 45.6694 17.3936 44.4578 16.0391C42.3911 13.7217 39.0209 10.3768 36.7792 8.26475C35.289 6.85887 33.3745 4.60495 31.4632 4.07855V50.1267Z" fill="#F0B4C8"/>
<path d="M3.70178 49.5286C4.19646 50.1039 9.51416 44.7855 10.1991 44.1464C15.6913 39.046 20.7301 33.1092 25.5564 27.4016C19.4871 18.5749 12.2001 10.5594 3.70178 4.07848V49.5286Z" fill="#F0B4C8"/>
</svg>
