<svg width="73" height="76" viewBox="0 0 73 76" fill="none" xmlns="http://www.w3.org/2000/svg">
<path d="M30.0725 6.1891C30.7952 1.08951 37.804 -2.51822 41.0725 2.1891C44.3248 6.8724 42.755 19.5051 42.0725 25.1891C45.2124 23.2117 47.31 19.5428 50.0725 17.1891C50.9638 16.4286 54.0767 14.7095 55.0725 14.1891C58.2284 12.5159 62.0728 11.9388 64.0724 15.1891C68.6177 22.5703 58.0112 29.4505 53.0725 33.1891C57.7302 33.4133 63.6316 32.8041 68.0724 34.1891C71.903 35.3819 73.5822 39.4425 72.0724 43.1891C70.3218 47.5362 58.0957 47.2451 54.0725 47.1891L59.0725 53.1891C61.6181 56.5835 66.5454 62.2503 62.0725 66.1891C55.8247 71.697 46.5336 58.248 43.0725 54.1891L42.0725 65.1891C41.1891 70.4248 41.7496 78.3433 34.0725 75.1891C31.5509 74.1564 31.4258 70.5588 31.0725 68.1891C30.438 63.8661 30.157 58.4161 31.0725 54.1891C30.1329 53.9409 29.6185 54.7648 29.0725 55.1891C24.5673 58.6635 15.7137 73.4102 9.07245 66.1891C2.43122 58.968 16.5792 51.0805 20.0725 46.1891C14.9088 46.7255 9.08349 46.8543 4.07245 45.1891C1.7436 44.4126 0.36155 43.7989 0.0724517 41.1891C-1.14819 30.2454 13.367 33.5894 20.0725 33.1891C14.6759 28.9701 5.85603 25.6511 8.07245 17.1891C9.07627 13.3464 13.5952 11.4038 17.0725 13.1891C18.0682 13.7015 22.9 18.0443 24.0725 19.1891C26.1363 21.2065 27.3742 24.2925 30.0725 25.1891C30.6587 19.385 29.2774 11.793 30.0725 6.1891Z" fill="#E65425"/>
</svg>
