<svg width="278" height="290" viewBox="0 0 278 290" fill="none" xmlns="http://www.w3.org/2000/svg">
<path d="M124.422 129.81C129.134 129.935 124.565 118.068 124.082 115.601C118.185 85.7351 101.268 53.7919 99.9096 22.9961C99.1421 5.41573 104.821 -3.66215 123.533 1.38782C160.71 11.3996 199.328 34.7928 237.249 44.7682C242.827 47.8059 248.439 54.709 251.69 60.0473C257.908 70.1933 273.392 140.117 275.648 155.473C278.306 173.451 284.302 209.403 254.872 204.954C222.639 191.728 190.463 180.268 159.382 164.375C154.746 166.895 156.554 166.601 156.892 169.15C160.56 196.07 174.207 227.601 178.672 255.9C180.885 270.002 185.461 283.39 167.642 289.102C156.942 292.528 79.7567 262.152 65.2176 255.797C48.8439 248.61 31.6486 242.265 23.6437 224.276C16.6106 208.42 10.7318 156.162 6.95967 135.785C4.54572 122.802 -10.1346 90.8648 12.2236 85.1264C23.3673 82.266 107.838 123.361 123.663 130.461L124.422 129.81Z" fill="#49454F"/>
</svg>
