<svg width="92" height="98" viewBox="0 0 92 98" fill="none" xmlns="http://www.w3.org/2000/svg">
<path d="M55.7806 15.1487C57.8483 10.2082 65.0349 4.51224 69.7806 10.1487C73.0101 13.9815 70.82 17.7278 70.7806 22.1487C73.5178 22.2663 75.0336 20.3349 77.7806 20.1487C85.5392 19.639 88.6304 24.6692 84.7806 31.1487C83.6779 33.0112 80.9972 34.1098 80.7806 36.1487C90.4296 35.3449 96.3859 43.8947 87.7806 50.1487C86.3825 51.1682 83.3474 51.296 83.7806 53.1487C96.8658 58.2362 92.1612 70.1682 78.7806 69.1487C87.4942 80.4608 81.6098 89.0102 68.7806 80.1487C68.1406 79.7076 68.7948 78.9134 67.7806 79.1487C70.567 94.0485 58.6445 101.999 53.7806 84.1487C53.4853 87.1679 51.7738 96.1586 48.7806 97.1487C39.6437 100.187 39.7301 87.0211 37.7806 86.1487C32.4343 101.754 20.5752 93.4213 22.7806 80.1487C21.481 81.0407 21.6218 81.3057 19.7806 82.1487C16.5315 83.6289 12.0452 84.5502 9.78063 81.1487C7.0041 76.9728 11.9844 71.2267 14.7806 68.1487C6.80548 70.0994 -1.47278 64.7553 2.78063 56.1487L8.78063 52.1487C-6.16539 49.3158 -0.146986 33.8057 12.7806 35.1487C13.0268 34.139 12.2828 34.6584 11.7806 34.1487C8.04905 30.3257 4.13339 25.0794 8.78063 20.1487C13.9694 14.6397 21.9437 22.0113 22.7806 21.1487C22.2194 15.277 22.1064 3.20794 30.7806 6.14869C33.5473 7.08973 36.2502 11.5117 38.7806 13.1487C40.2083 8.09059 40.3568 -1.29228 47.7806 0.148689C54.0131 1.3544 53.8157 9.48269 54.7806 14.1487C54.948 14.9427 54.8256 15.0213 55.7806 15.1487Z" fill="#00FF7F"/>
</svg>
