<svg width="104" height="105" viewBox="0 0 104 105" fill="none" xmlns="http://www.w3.org/2000/svg">
<path d="M51.7073 0.131253C57.2724 -1.39495 59.3475 10.8049 60.7073 15.1313C62.3441 20.3783 62.04 25.6572 62.7073 31.1313C66.4718 28.4826 89.8728 17.3072 92.7073 20.1313C94.6211 32.5048 81.8894 39.2011 75.7073 48.1313C76.0367 49.6452 99.8234 57.825 102.707 64.1313C104.533 68.1169 102.283 69.3871 98.7073 70.1313H71.7073L77.7073 96.1313C75.4283 115.921 59.3209 88.6523 55.7073 82.1313C55.7044 82.126 55.7102 82.1367 55.7073 82.1313C53.7913 81.4732 54.1439 81.617 52.7073 83.1313C49.3449 86.6638 34.8171 103.425 31.7073 104.131C28.5976 104.837 26.6013 103.171 25.7073 100.131C23.7559 93.4844 31.7513 71.1803 30.7073 70.1313C23.3669 69.324 8.86421 73.4576 2.70732 69.1313C-3.58764 64.7042 2.66027 61.2755 5.70732 59.1313C9.30828 56.596 11.2807 54.3204 16.7073 54.1313C16.431 54.1553 16.9727 54.1333 16.7073 54.1313C16.8337 54.1328 17.7579 55.4083 19.7073 55.1313C21.2357 54.9139 27.204 52.8115 29.7073 51.1313C27.179 52.8093 21.1828 54.9145 19.7073 55.1313C17.8207 55.4083 16.8338 54.1201 16.7073 54.1313C16.2037 51.6592 18.2216 52.5223 19.7073 52.1313C21.1935 51.7402 27.4429 51.4087 27.7073 51.1313C27.9191 50.9176 27.7466 47.9108 27.7073 47.1313C27.6987 47.1281 27.7159 47.1345 27.7073 47.1313C27.7069 47.1239 27.7077 47.1385 27.7073 47.1313C26.4291 46.6715 25.2893 48.68 25.7073 45.1313C25.7002 45.1265 25.7145 45.1363 25.7073 45.1313C23.0382 43.2646 13.8665 31.1087 12.7073 28.1313C5.60633 9.74168 40.9678 32.8577 42.7073 31.1313C43.6264 24.2192 44.8313 16.8541 46.7073 10.1313C47.425 7.55818 49.0507 0.862926 51.7073 0.131253ZM53.7073 80.1313C50.4688 80.1466 45.6189 89.2755 42.7073 90.1313C41.9677 90.3517 41.0036 90.1484 39.7073 90.1313C41.0179 90.1512 41.9605 90.3538 42.7073 90.1313C45.5961 89.2667 50.4598 80.2132 53.7073 80.1313ZM10.7073 68.1313C15.7702 68.9606 20.4963 68.0165 25.7073 68.1313C20.5019 68.0116 15.7759 68.9518 10.7073 68.1313Z" fill="#FF007F"/>
</svg>
