<svg width="248" height="257" viewBox="0 0 248 257" fill="none" xmlns="http://www.w3.org/2000/svg">
<path d="M11.8167 137.065C-1.20854 134.362 -3.34839 117.733 4.81666 109.065L96.8167 5.06532C108.708 -1.08616 120.16 3.45167 122.817 16.0653C128.001 40.7645 120.568 74.2283 125.817 102.065C126.367 105.017 122.535 107.966 127.817 107.065C141.846 93.24 155.889 78.8227 168.817 64.0653C183.17 47.6924 196.361 28.5994 211.817 13.0653C225.587 -0.759982 240.665 -8.78916 245.817 16.0653C240.633 85.72 252.524 164.467 245.817 233.065C242.674 265.159 216.469 252.724 192.817 253.065C138.253 253.78 73.6023 259.726 19.8167 255.065C6.53225 253.916 -2.82111 244.238 2.81666 231.065C7.2556 220.658 57.0551 176.617 68.8167 164.065C76.8845 155.459 84.4616 146.23 91.8167 137.065H10.8167H11.8167ZM217.817 137.065H125.817C126.529 139.116 122.817 142.382 122.817 143.065V225.065L217.817 137.065Z" fill="#49454F"/>
</svg>
