<svg width="413" height="395" viewBox="0 0 413 395" fill="none" xmlns="http://www.w3.org/2000/svg">
<path d="M314.086 122.33C314.812 119.703 323.397 113.547 327.029 112.85C344.26 109.484 399.8 119.785 409.001 106.816C414.973 98.3622 413.561 25.4728 409.001 14.5971C407.588 11.1908 405.205 6.18367 402.098 4.25477C386.965 -5.30765 332.174 4.37788 312.36 3.39291C294.201 11.601 303.564 71.2752 301.143 89.5792C299.972 98.526 293.788 103.123 284.748 104.231C270.584 105.955 236.786 105.708 222.622 104.231C218.425 103.82 215.238 104.6 211.405 101.645C199.016 92.0008 207.665 32.4907 205.365 14.5971C204.194 5.40407 201.34 2.85935 192.422 1.66918C181.647 0.232766 112.98 -0.0134625 105.272 2.53104C86.4674 8.64606 104.728 86.4193 90.6038 100.783C79.3853 112.193 17.1808 97.0899 6.04306 108.54C3.33932 111.29 2.99515 112.891 2.59161 116.297C0.573914 133.575 0.614258 180.814 2.59161 198.174C3.03549 202.155 4.944 207.408 7.7688 210.24C14.1044 216.601 80.0773 212.005 93.1924 218.859C95.1293 246.192 94.6795 274.839 90.6038 302.459C71.0724 317.316 12.5187 293.554 2.59161 318.835C-1.52451 329.3 -0.792206 375.759 5.18021 385.198C16.3583 402.846 78.3539 391.067 98.3695 392.093C119.394 380.971 101.739 327.002 113.038 317.973C124.337 308.944 192.228 321.79 201.913 311.94C208.007 305.743 206.516 239.174 208.816 225.754C218.138 207.942 233.884 216.273 247.645 216.273C259.428 216.273 290.75 212.662 297.691 219.721C316.779 239.092 278.415 310.298 320.989 315.387C334.547 316.988 385.597 318.137 397.783 315.387C409.97 312.638 411.443 294.456 412.452 283.498C413.582 271.104 413.449 215.493 407.275 207.654C396.581 194.029 331.68 207.039 314.086 199.036C317.596 179.008 309.364 139.813 314.086 122.33ZM113.038 116.297C120.262 107.227 182.948 107.309 190.696 113.711C199.332 120.811 198.189 171.497 196.736 184.384C192.741 219.843 136.242 199.077 113.038 200.76C106.783 186.765 105.896 125.285 113.038 116.297Z" fill="#49454F"/>
</svg>
