<svg width="89" height="91" viewBox="0 0 89 91" fill="none" xmlns="http://www.w3.org/2000/svg">
<path d="M3.86913 9.00048C15.163 -5.87616 36.0226 -0.986058 44.8691 14.0005L48.8691 8.00048C70.8049 -13.1505 100.248 13.6523 83.8691 38.0005L74.8691 46.0005C78.1891 46.56 81.8832 50.253 83.8691 53.0005C96.2763 70.255 83.7317 92.0487 62.8691 90.0005C54.4037 89.1712 48.4228 82.5946 43.8691 76.0005C39.1851 83.6536 32.1971 89.8506 22.8691 90.0005C2.22721 90.3302 -7.59426 64.2976 6.86913 50.0005C8.04265 48.8415 11.498 46.4401 11.8691 46.0005C12.2402 45.5609 12.3606 44.4501 11.8691 44.0005C10.505 42.7716 7.70463 42.8288 5.86913 41.0005C4.28437 39.4219 4.81196 37.4592 3.86913 36.0005L0.869127 28.0005C1.08979 24.044 -0.0235505 19.8071 0.869127 16.0005C1.39069 13.8025 3.69862 11.2784 3.86913 9.00048Z" fill="#FFE0B1"/>
</svg>
