<svg width="400" height="376" viewBox="0 0 400 376" fill="none" xmlns="http://www.w3.org/2000/svg">
<path d="M96.2667 116.979C95.5623 114.475 87.5139 108.262 83.9922 107.597C67.2835 104.389 12.7687 113.462 3.84696 101.101C-1.94435 93.0432 -0.574781 23.4196 3.84696 13.0535C5.21653 9.80672 7.33218 6.23153 10.3452 4.39301C25.0191 -4.72134 79.2197 3.88842 98.4328 2.94961C116.041 10.7731 106.915 67.7775 109.263 85.2239C110.398 93.7515 114.939 98.6018 123.704 99.658C137.439 101.301 170.619 101.066 184.354 99.658C188.424 99.2668 192.189 100.309 195.907 97.4929C207.92 88.3003 199.452 30.1087 201.683 13.0535C202.818 4.29116 205.31 1.9189 213.957 0.784494C224.405 -0.584615 290.961 -0.197377 298.435 2.2279C316.67 8.0564 298.458 81.6366 312.153 95.3277C323.032 106.202 383.665 92.3527 394.465 103.266C397.086 105.887 396.962 108.68 397.353 111.927C399.309 128.395 399.27 171.881 397.353 188.428C396.922 192.222 396.482 197.276 393.743 199.975C387.599 206.038 322.705 201.381 309.987 207.914C308.109 233.966 308.201 261.697 312.153 288.023C331.093 302.183 387.727 279.804 397.353 303.9C401.344 313.875 400.978 357.691 395.187 366.688C384.348 383.509 323.62 372.206 304.211 373.184C283.824 362.583 300.727 311.784 289.771 303.179C278.814 294.573 215.406 306.071 206.015 296.683C200.106 290.776 201.025 227.922 198.795 215.131C189.756 198.154 174.593 205.748 161.249 205.748C149.823 205.748 118.16 201.907 111.429 208.635C92.9206 227.099 130.329 296.163 89.0464 301.013C75.8986 302.539 27.9389 302.913 16.1215 300.292C4.30406 297.671 1.9371 281.146 0.958843 270.702C-0.13681 258.888 0.0260869 206.003 6.01305 198.531C16.3826 185.544 79.2058 197.499 96.2667 189.871C92.8623 170.782 100.845 133.643 96.2667 116.979ZM289.771 110.484C282.766 101.839 223.637 102.216 216.124 108.318C207.75 115.086 208.217 163.154 209.625 175.437C213.499 209.234 268.715 189.711 291.215 191.314C297.28 177.975 296.697 119.05 289.771 110.484Z" fill="#605D66"/>
</svg>
